<svg width="293" height="65" viewBox="0 0 293 65" fill="none" xmlns="http://www.w3.org/2000/svg">
<rect y="23" width="277" height="42" rx="3" fill="#EDE5FF"/>
<path d="M86.3223 46.0723H85.0371V43.4268H86.3223V46.0723ZM86.0625 39.4004C86.0625 40.0977 85.9212 40.7448 85.6387 41.3418C85.3561 41.9342 84.9551 42.4447 84.4355 42.873C83.9206 43.2969 83.3076 43.6113 82.5967 43.8164L81.9814 42.832C82.6058 42.6543 83.1436 42.3968 83.5947 42.0596C84.0505 41.7178 84.3991 41.319 84.6406 40.8633C84.8867 40.4076 85.0098 39.9199 85.0098 39.4004V39.1064H86.0625V39.4004ZM86.3291 39.4004C86.3291 39.8926 86.4544 40.3597 86.7051 40.8018C86.9557 41.2393 87.3089 41.6221 87.7646 41.9502C88.2249 42.2783 88.7673 42.529 89.3916 42.7021L88.79 43.7139C88.0791 43.5042 87.457 43.1921 86.9238 42.7773C86.3952 42.3581 85.9873 41.859 85.7002 41.2803C85.4131 40.6969 85.2695 40.0703 85.2695 39.4004V39.1064H86.3291V39.4004ZM89.084 39.5234H82.3096V38.4639H89.084V39.5234ZM86.3223 38.9355H85.0371V37.0078H86.3223V38.9355ZM91.7158 49.1895H90.4238V36.9053H91.7158V49.1895ZM81.6465 45.6484C82.7038 45.6393 83.6335 45.6257 84.4355 45.6074C85.2376 45.5892 86.1012 45.5505 87.0264 45.4912C87.9515 45.432 88.8265 45.3431 89.6514 45.2246L89.7471 46.1748C88.8949 46.3343 88.0085 46.4551 87.0879 46.5371C86.1719 46.6146 85.3105 46.6624 84.5039 46.6807C83.6973 46.6989 82.8018 46.708 81.8174 46.708L81.6465 45.6484ZM102.783 39.1406H94.8604V38.0879H102.783V39.1406ZM104.854 47.501H93.6846V46.4346H104.854V47.501ZM99.2148 46.9883H97.9365V42.1143H99.2148V46.9883ZM103.597 39.291C103.597 40.0156 103.588 40.624 103.569 41.1162C103.551 41.6038 103.51 42.1826 103.446 42.8525C103.382 43.5179 103.28 44.238 103.139 45.0127L101.819 44.8691C101.97 44.1354 102.079 43.4427 102.147 42.791C102.216 42.1393 102.257 41.5628 102.271 41.0615C102.289 40.5557 102.298 39.9655 102.298 39.291V38.0879H103.597V39.291ZM119.36 43.4883H118.068V36.9053H119.36V43.4883ZM112.627 45.4434H118.075V44.0762H119.36V49.0049H111.342V44.0762H112.627V45.4434ZM118.075 47.9521V46.4688H112.627V47.9521H118.075ZM112.716 37.4795C113.336 37.4704 113.892 37.5866 114.384 37.8281C114.881 38.0651 115.27 38.4023 115.553 38.8398C115.835 39.2728 115.977 39.7673 115.977 40.3232C115.977 40.8656 115.835 41.3532 115.553 41.7861C115.27 42.2145 114.881 42.5495 114.384 42.791C113.892 43.0326 113.336 43.1533 112.716 43.1533C112.096 43.1533 111.538 43.0326 111.041 42.791C110.549 42.5495 110.161 42.2145 109.879 41.7861C109.596 41.3532 109.455 40.8656 109.455 40.3232C109.455 39.7673 109.596 39.2728 109.879 38.8398C110.161 38.4023 110.549 38.0651 111.041 37.8281C111.538 37.5866 112.096 37.4704 112.716 37.4795ZM112.716 38.5664C112.333 38.5573 111.989 38.6279 111.684 38.7783C111.383 38.9287 111.148 39.1383 110.979 39.4072C110.811 39.6715 110.727 39.9769 110.727 40.3232C110.727 40.665 110.811 40.9704 110.979 41.2393C111.148 41.5036 111.383 41.7109 111.684 41.8613C111.989 42.0117 112.333 42.0869 112.716 42.0869C113.099 42.0869 113.44 42.0117 113.741 41.8613C114.042 41.7109 114.277 41.5036 114.445 41.2393C114.614 40.9704 114.698 40.665 114.698 40.3232C114.698 39.9769 114.612 39.6715 114.438 39.4072C114.27 39.1383 114.035 38.9287 113.734 38.7783C113.438 38.6279 113.099 38.5573 112.716 38.5664ZM125.362 39.2637C125.362 39.8971 125.216 40.4896 124.925 41.041C124.633 41.5924 124.221 42.0641 123.688 42.4561C123.154 42.848 122.53 43.1374 121.814 43.3242L121.24 42.3193C121.855 42.1598 122.396 41.9274 122.86 41.6221C123.325 41.3167 123.683 40.9613 123.934 40.5557C124.184 40.1501 124.31 39.7194 124.31 39.2637V38.7646H125.362V39.2637ZM125.588 39.2637C125.588 39.6784 125.713 40.0749 125.964 40.4531C126.215 40.8314 126.568 41.1618 127.023 41.4443C127.479 41.7269 128.008 41.9388 128.609 42.0801L128.035 43.085C127.324 42.9118 126.704 42.6406 126.176 42.2715C125.652 41.8978 125.251 41.4535 124.973 40.9385C124.699 40.4189 124.562 39.8607 124.562 39.2637V38.7646H125.588V39.2637ZM128.261 39.1543H121.644V38.1084H128.261V39.1543ZM125.615 38.6621H124.31V36.8711H125.615V38.6621ZM130.927 43.3447H129.635V36.9053H130.927V43.3447ZM132.711 40.6377H130.366V39.5508H132.711V40.6377ZM130.927 46.9131H124.31V48.6016H123.031V45.9424H129.635V44.9238H123.011V43.9189H130.927V46.9131ZM131.351 49.0391H123.031V48.0137H131.351V49.0391ZM142.944 49.1484H141.652V36.9053H142.944V49.1484ZM144.845 42.8799H142.609V41.7998H144.845V42.8799ZM139.738 38.2041C139.738 39.43 139.547 40.5762 139.164 41.6426C138.786 42.7044 138.18 43.6842 137.346 44.582C136.516 45.4753 135.448 46.2454 134.14 46.8926L133.415 45.8809C134.541 45.3158 135.477 44.6641 136.225 43.9258C136.972 43.1829 137.533 42.3558 137.906 41.4443C138.28 40.5283 138.467 39.5234 138.467 38.4297V38.2041H139.738ZM139.123 39.2842H134.017V38.2041H139.123V39.2842ZM153.328 44.2402H152.043V42.6133H153.328V44.2402ZM158.564 45.1699H157.259V36.9189H158.564V45.1699ZM160.308 41.6357H158.052V40.5625H160.308V41.6357ZM148.837 43.8096C149.799 43.8096 150.685 43.8027 151.496 43.7891C152.312 43.7754 153.166 43.7412 154.06 43.6865C154.953 43.6273 155.787 43.5452 156.562 43.4404L156.671 44.3564C155.513 44.557 154.319 44.6891 153.089 44.7529C151.863 44.8122 150.493 44.8418 148.98 44.8418L148.837 43.8096ZM158.564 49.1553H157.259V46.7627H150.354V45.7373H158.564V49.1553ZM156.213 38.9287H149.145V37.9648H156.213V38.9287ZM152.672 39.3389C153.26 39.3389 153.772 39.4118 154.21 39.5576C154.647 39.7035 154.987 39.9131 155.229 40.1865C155.475 40.4554 155.598 40.7767 155.598 41.1504C155.598 41.515 155.475 41.8363 155.229 42.1143C154.987 42.3923 154.647 42.6064 154.21 42.7568C153.772 42.9072 153.26 42.9824 152.672 42.9824C152.093 42.9824 151.583 42.9072 151.141 42.7568C150.703 42.6064 150.364 42.3923 150.122 42.1143C149.881 41.8363 149.76 41.515 149.76 41.1504C149.76 40.7767 149.881 40.4554 150.122 40.1865C150.364 39.9131 150.703 39.7035 151.141 39.5576C151.583 39.4118 152.093 39.3389 152.672 39.3389ZM152.672 40.2344C152.33 40.2253 152.034 40.2572 151.783 40.3301C151.533 40.403 151.339 40.5078 151.202 40.6445C151.065 40.7812 150.997 40.9499 150.997 41.1504C150.997 41.3372 151.065 41.5036 151.202 41.6494C151.339 41.7907 151.533 41.9001 151.783 41.9775C152.034 42.0505 152.33 42.0869 152.672 42.0869C153.023 42.0869 153.321 42.0505 153.567 41.9775C153.818 41.9001 154.012 41.7907 154.148 41.6494C154.285 41.5036 154.354 41.3372 154.354 41.1504C154.354 40.9499 154.285 40.7812 154.148 40.6445C154.012 40.5078 153.818 40.403 153.567 40.3301C153.321 40.2572 153.023 40.2253 152.672 40.2344ZM153.328 38.4434H152.043V36.8096H153.328V38.4434ZM171.177 45.8262H169.885V36.9189H171.177V45.8262ZM171.546 48.916H163.172V47.8428H171.546V48.916ZM164.471 48.2324H163.172V44.9238H164.471V48.2324ZM164.532 37.7461C165.143 37.7461 165.697 37.876 166.193 38.1357C166.695 38.391 167.087 38.751 167.369 39.2158C167.652 39.6761 167.793 40.1979 167.793 40.7812C167.793 41.3737 167.652 41.9001 167.369 42.3604C167.087 42.8206 166.695 43.1807 166.193 43.4404C165.697 43.7002 165.143 43.8301 164.532 43.8301C163.922 43.8301 163.368 43.7002 162.871 43.4404C162.379 43.1807 161.989 42.8206 161.702 42.3604C161.415 41.9001 161.271 41.3737 161.271 40.7812C161.271 40.1979 161.415 39.6761 161.702 39.2158C161.989 38.751 162.379 38.391 162.871 38.1357C163.368 37.876 163.922 37.7461 164.532 37.7461ZM164.532 38.8809C164.159 38.8809 163.819 38.9606 163.514 39.1201C163.208 39.2796 162.969 39.5029 162.796 39.79C162.627 40.0771 162.543 40.4076 162.543 40.7812C162.543 41.1549 162.627 41.4876 162.796 41.7793C162.969 42.071 163.208 42.2965 163.514 42.4561C163.819 42.6156 164.159 42.6953 164.532 42.6953C164.906 42.6953 165.243 42.6156 165.544 42.4561C165.845 42.2965 166.082 42.071 166.255 41.7793C166.428 41.4876 166.515 41.1549 166.515 40.7812C166.515 40.4076 166.428 40.0771 166.255 39.79C166.082 39.5029 165.845 39.2796 165.544 39.1201C165.243 38.9606 164.906 38.8809 164.532 38.8809ZM182.661 49.1553H181.376V36.9053H182.661V49.1553ZM184.637 42.9482H182.367V41.875H184.637V42.9482ZM180.31 39.8857H173.05V38.8262H180.31V39.8857ZM176.734 40.7949C177.318 40.7949 177.84 40.9157 178.3 41.1572C178.765 41.3988 179.127 41.736 179.387 42.1689C179.651 42.6019 179.783 43.0918 179.783 43.6387C179.783 44.1901 179.651 44.6823 179.387 45.1152C179.127 45.5482 178.765 45.8854 178.3 46.127C177.84 46.3685 177.318 46.4893 176.734 46.4893C176.146 46.4893 175.622 46.3685 175.162 46.127C174.702 45.8854 174.34 45.5482 174.075 45.1152C173.815 44.6823 173.686 44.1901 173.686 43.6387C173.686 43.0918 173.815 42.6019 174.075 42.1689C174.34 41.736 174.702 41.3988 175.162 41.1572C175.622 40.9157 176.146 40.7949 176.734 40.7949ZM176.734 41.8682C176.388 41.8682 176.078 41.9434 175.805 42.0938C175.531 42.2396 175.315 42.4469 175.155 42.7158C175 42.9847 174.923 43.2923 174.923 43.6387C174.923 43.9896 175 44.2972 175.155 44.5615C175.315 44.8258 175.531 45.0332 175.805 45.1836C176.078 45.3294 176.388 45.4023 176.734 45.4023C177.081 45.4023 177.391 45.3294 177.664 45.1836C177.938 45.0332 178.152 44.8258 178.307 44.5615C178.462 44.2972 178.539 43.9896 178.539 43.6387C178.539 43.2923 178.462 42.9847 178.307 42.7158C178.152 42.4469 177.938 42.2396 177.664 42.0938C177.391 41.9434 177.081 41.8682 176.734 41.8682ZM177.37 39.2773H176.078V37.0693H177.37V39.2773ZM195.403 49.1553H194.091V36.9053H195.403V49.1553ZM191.767 38.2246C191.767 39.4733 191.573 40.6286 191.186 41.6904C190.803 42.7477 190.188 43.723 189.34 44.6162C188.492 45.5049 187.389 46.2751 186.031 46.9268L185.334 45.874C186.514 45.318 187.483 44.6709 188.239 43.9326C189 43.1943 189.563 42.3695 189.928 41.458C190.292 40.5465 190.475 39.5394 190.475 38.4365V38.2246H191.767ZM191.035 39.2637H185.929V38.2246H191.035V39.2637Z" fill="#9787F4"/>
<ellipse cx="231" cy="26.5" rx="19" ry="18.5" fill="#9787F4"/>
<path d="M231 12C239.314 12 246 18.5216 246 26.5C246 34.4784 239.314 41 231 41C222.686 41 216 34.4784 216 26.5C216 18.5216 222.686 12 231 12Z" fill="white" stroke="#EDE5FF" stroke-width="2"/>
<path d="M238.805 22C239.958 22 240.843 22.3558 241.462 23.0673C242.088 23.7789 242.402 24.7998 242.402 26.1301C242.402 27.4604 242.088 28.4852 241.462 29.2045C240.843 29.916 239.958 30.2718 238.805 30.2718C237.637 30.2718 236.74 29.916 236.114 29.2045C235.495 28.4852 235.186 27.4604 235.186 26.1301C235.186 24.7998 235.495 23.7789 236.114 23.0673C236.74 22.3558 237.637 22 238.805 22ZM238.805 23.5546C238.302 23.5546 237.935 23.7557 237.703 24.1579C237.479 24.5523 237.367 25.2097 237.367 26.1301C237.367 27.0505 237.479 27.7118 237.703 28.1139C237.935 28.5161 238.302 28.7172 238.805 28.7172C239.3 28.7172 239.66 28.5161 239.884 28.1139C240.116 27.7118 240.232 27.0505 240.232 26.1301C240.232 25.2097 240.116 24.5523 239.884 24.1579C239.66 23.7557 239.3 23.5546 238.805 23.5546Z" fill="#9787F4"/>
<path d="M230.648 22C231.8 22 232.686 22.3558 233.305 23.0673C233.931 23.7789 234.244 24.7998 234.244 26.1301C234.244 27.4604 233.931 28.4852 233.305 29.2045C232.686 29.916 231.8 30.2718 230.648 30.2718C229.48 30.2718 228.583 29.916 227.956 29.2045C227.338 28.4852 227.028 27.4604 227.028 26.1301C227.028 24.7998 227.338 23.7789 227.956 23.0673C228.583 22.3558 229.48 22 230.648 22ZM230.648 23.5546C230.145 23.5546 229.778 23.7557 229.546 24.1579C229.322 24.5523 229.209 25.2097 229.209 26.1301C229.209 27.0505 229.322 27.7118 229.546 28.1139C229.778 28.5161 230.145 28.7172 230.648 28.7172C231.143 28.7172 231.503 28.5161 231.727 28.1139C231.959 27.7118 232.075 27.0505 232.075 26.1301C232.075 25.2097 231.959 24.5523 231.727 24.1579C231.503 23.7557 231.143 23.5546 230.648 23.5546Z" fill="#9787F4"/>
<path d="M222.284 25.9558L221.39 25.0277C221.599 25.0277 221.812 25.0277 222.028 25.0277C222.245 25.0277 222.438 25.0277 222.609 25.0277C222.786 25.0277 222.922 25.0277 223.015 25.0277C223.649 25.0277 224.202 25.1321 224.674 25.3409C225.153 25.542 225.52 25.8282 225.776 26.1994C226.031 26.5707 226.159 26.9961 226.159 27.4756C226.159 28.0479 226.019 28.5468 225.741 28.9722C225.47 29.3898 225.087 29.7147 224.592 29.9467C224.105 30.1787 223.521 30.2947 222.841 30.2947C222.299 30.2947 221.738 30.2019 221.158 30.0163C220.578 29.8307 220.068 29.587 219.627 29.2854L220.416 27.7888C220.741 28.0518 221.093 28.2684 221.472 28.4385C221.851 28.6009 222.23 28.6821 222.609 28.6821C223.011 28.6821 223.324 28.5893 223.548 28.4037C223.773 28.2103 223.885 27.9551 223.885 27.638C223.885 27.3209 223.776 27.0773 223.56 26.9071C223.343 26.7292 223.011 26.6403 222.562 26.6403C222.469 26.6403 222.326 26.6403 222.133 26.6403C221.939 26.6403 221.727 26.6442 221.495 26.6519C221.27 26.6596 221.054 26.6674 220.845 26.6751C220.636 26.6751 220.466 26.679 220.335 26.6867V22.0693H225.799V23.7515H221.356L222.284 22.8234V25.9558Z" fill="#9787F4"/>
<rect x="287.463" y="7.14282" width="4.99121" height="4.49208" transform="rotate(45 287.463 7.14282)" fill="#9787F4"/>
<circle cx="274.286" cy="26.4287" r="17.8571" fill="white"/>
<rect x="270.714" y="3.57129" width="7.14286" height="4.28572" fill="#9787F4"/>
<path d="M289.286 26.0714C289.286 17.5899 282.41 10.7143 273.929 10.7143C265.447 10.7143 258.571 17.5899 258.571 26.0714C258.571 34.5529 265.447 41.4286 273.929 41.4286C282.41 41.4286 289.286 34.5529 289.286 26.0714ZM292.857 26.0714C292.857 36.5254 284.383 45 273.929 45C263.475 45 255 36.5254 255 26.0714C255 15.6174 263.475 7.14282 273.929 7.14282C284.383 7.14282 292.857 15.6174 292.857 26.0714Z" fill="#9787F4"/>
<path d="M261.428 25V27.1429H257.143V25H261.428Z" fill="#9787F4"/>
<path d="M290.714 25V27.1429H286.429V25H290.714Z" fill="#9787F4"/>
<path d="M275 13.5714L272.857 13.5714L272.857 9.28564L275 9.28564L275 13.5714Z" fill="#9787F4"/>
<path d="M275 42.857L272.857 42.857L272.857 38.5713L275 38.5713L275 42.857Z" fill="#9787F4"/>
<path d="M276.91 21.4285C278.258 21.4285 279.294 21.8447 280.018 22.677C280.751 23.5094 281.117 24.7037 281.117 26.2599C281.117 27.8161 280.751 29.0149 280.018 29.8563C279.294 30.6887 278.258 31.1049 276.91 31.1049C275.544 31.1049 274.494 30.6887 273.761 29.8563C273.038 29.0149 272.676 27.8161 272.676 26.2599C272.676 24.7037 273.038 23.5094 273.761 22.677C274.494 21.8447 275.544 21.4285 276.91 21.4285ZM276.91 23.247C276.322 23.247 275.892 23.4823 275.621 23.9528C275.358 24.4142 275.227 25.1832 275.227 26.2599C275.227 27.3366 275.358 28.1101 275.621 28.5806C275.892 29.0511 276.322 29.2863 276.91 29.2863C277.489 29.2863 277.91 29.0511 278.172 28.5806C278.444 28.1101 278.579 27.3366 278.579 26.2599C278.579 25.1832 278.444 24.4142 278.172 23.9528C277.91 23.4823 277.489 23.247 276.91 23.247Z" fill="#9787F4"/>
<path d="M266.429 21.5103H270.744V31.0238H268.261V22.4331L269.347 23.5188H266.429V21.5103Z" fill="#9787F4"/>
<rect x="267.857" width="12.8571" height="5.71429" fill="#9787F4"/>
</svg>
