<svg width="144" height="115" viewBox="0 0 144 115" fill="none" xmlns="http://www.w3.org/2000/svg">
<circle cx="70.5" cy="57.5" r="55.5" stroke="#DADADA" stroke-width="3" stroke-linecap="round" stroke-dasharray="3 11"/>
<rect x="52" y="18" width="38" height="59" rx="19" stroke="#9787F4" stroke-width="6"/>
<rect x="40" y="44" width="62" height="50" rx="8" fill="#EDE5FF"/>
<circle cx="71" cy="65" r="7" fill="#9787F4"/>
<rect x="68" y="65" width="6" height="16" rx="3" fill="#9787F4"/>
<path d="M8.0751 24.2499C8.41482 23.4235 9.58518 23.4235 9.9249 24.2499L11.4633 27.992C11.5648 28.2391 11.7609 28.4352 12.008 28.5367L15.7501 30.0751C16.5765 30.4148 16.5765 31.5852 15.7501 31.9249L12.008 33.4633C11.7609 33.5648 11.5648 33.7609 11.4633 34.008L9.9249 37.7501C9.58518 38.5765 8.41482 38.5765 8.0751 37.7501L6.53673 34.008C6.43519 33.7609 6.23906 33.5648 5.99205 33.4633L2.24987 31.9249C1.42349 31.5852 1.42349 30.4148 2.24987 30.0751L5.99205 28.5367C6.23906 28.4352 6.43519 28.2391 6.53673 27.992L8.0751 24.2499Z" fill="#9787F4"/>
<path d="M131.075 83.2499C131.415 82.4235 132.585 82.4235 132.925 83.2499L135.337 89.1181C135.439 89.3651 135.635 89.5612 135.882 89.6627L141.75 92.0751C142.577 92.4148 142.577 93.5852 141.75 93.9249L135.882 96.3373C135.635 96.4388 135.439 96.6349 135.337 96.8819L132.925 102.75C132.585 103.577 131.415 103.577 131.075 102.75L128.663 96.8819C128.561 96.6349 128.365 96.4388 128.118 96.3373L122.25 93.9249C121.423 93.5852 121.423 92.4148 122.25 92.0751L128.118 89.6627C128.365 89.5612 128.561 89.3651 128.663 89.1181L131.075 83.2499Z" fill="#9787F4"/>
</svg>
