<svg width="236" height="230" viewBox="0 0 236 230" fill="current" xmlns="http://www.w3.org/2000/svg">
<path d="M118.153 0.392624C106.668 2.19418 96.1963 7.76775 87.4982 16.7755C78.3215 26.2055 73.0295 37.2963 71.4531 50.3576C70.3835 59.3653 72.4383 70.5687 77.0548 80.7588C77.8712 82.5322 78.603 84.193 78.6593 84.4182C78.7438 84.6997 77.1674 86.1353 74.071 88.6406C65.964 95.1994 54.7888 104.432 52.6494 106.346C50.0034 108.711 46.1751 113.187 44.2891 116.086C43.4728 117.325 41.0801 121.688 38.9407 125.798C30.4397 142.096 27.7655 146.431 23.9653 150.034C22.4453 151.47 8.1173 162.166 2.2904 166.22C0.826639 167.233 0.319952 168.247 0.826639 169.204C1.86816 171.174 2.03706 171.062 14.1694 162.11C14.9576 161.547 17.0406 160.027 18.814 158.732C23.6275 155.214 27.6247 151.892 29.004 150.231C31.5093 147.247 33.5361 143.813 40.4889 130.724C42.5438 126.839 44.7113 122.757 45.3025 121.632C49.3841 113.947 51.9457 111.385 71.3405 95.6497C79.9261 88.6687 80.3201 88.3591 80.5172 88.3591C80.7142 88.3591 87.2167 100.97 87.4419 101.758C87.4982 101.927 86.5974 102.8 85.4715 103.729C81.1646 107.163 72.4102 114.65 71.6783 115.467C70.6649 116.593 70.6368 117.747 71.5939 118.366C72.6072 119.042 73.3954 118.704 75.7318 116.705C76.8578 115.72 79.5601 113.412 81.7276 111.582C83.8951 109.753 86.513 107.501 87.5545 106.6L89.4124 104.967L90.1724 106.262L90.9324 107.557L88.7368 109.837C82.4876 116.424 78.1808 120.674 76.6607 121.8C73.1702 124.39 70.0738 125.46 65.1477 125.769C61.5164 125.995 61.0379 126.22 61.0379 127.768C61.0379 129.091 61.7698 129.457 64.5284 129.457C69.173 129.457 73.8458 128.05 77.7867 125.46C80.5735 123.63 84.8803 119.323 95.9993 107.304C105.063 97.5357 105.626 97.0572 107.878 97.4794C110.693 98.0143 112.945 102.068 112.241 105.277C111.932 106.6 109.764 110.484 107.259 114.116C104.979 117.409 101.685 121.434 97.3504 126.192C87.6108 136.888 85.9781 139.703 83.5292 150.006C82.0936 156.002 80.7705 158.732 77.2519 162.758C75.197 165.094 71.7628 167.824 68.4975 169.682C67.3433 170.358 64.2188 171.822 61.5446 172.976C55.9429 175.397 53.8317 176.438 52.0864 177.649C51.4109 178.099 46.0906 182.321 40.2638 186.994C34.4087 191.639 27.5121 197.156 24.8661 199.239C22.2482 201.322 19.9118 203.208 19.7429 203.433C19.1518 204.165 19.3207 205.122 20.1089 205.629C20.7563 206.079 20.8971 206.079 21.7415 205.685C22.2201 205.432 26.2736 202.335 30.7493 198.817C42.2342 189.696 45.4151 187.191 45.4995 187.276C45.5277 187.332 45.1899 187.979 44.7113 188.739C43.9795 189.865 36.6606 202.673 24.5846 223.898C22.5297 227.529 22.3327 228.036 22.7268 228.796C23.2897 229.837 24.0498 229.753 29.0322 228.148C31.6782 227.304 40.1512 224.63 47.8078 222.209C55.4644 219.788 63.8247 217.114 66.3863 216.297C74.6059 213.623 80.095 211.934 80.489 211.934C80.7142 211.934 84.2329 212.891 88.3427 214.074C92.4525 215.228 98.8987 217.058 102.699 218.099C106.499 219.169 116.239 221.871 124.346 224.151C134.057 226.882 139.321 228.261 139.771 228.12C140.334 227.979 175.69 213.173 181.432 210.668L183.206 209.908L185.232 210.471C195.282 213.257 198.068 214.017 202.488 215.172C209.61 217.001 223.853 220.773 229.342 222.265C234.24 223.588 235.141 223.644 235.563 222.49C235.901 221.59 235.676 220.914 233.452 216.297C232.411 214.13 231.088 211.343 230.496 210.105C229.905 208.866 228.273 205.46 226.865 202.561C225.458 199.633 224.304 197.212 224.304 197.156C224.304 197.128 223.403 195.186 222.305 192.905C221.179 190.597 219.237 186.487 217.97 183.785C216.703 181.083 215.127 177.789 214.508 176.466C213.86 175.143 210.482 167.993 206.992 160.562C203.501 153.131 200.461 146.881 200.292 146.712C200.095 146.515 197.59 145.671 194.747 144.826C191.876 143.982 184.388 141.786 178.111 139.9C171.833 138.014 166.401 136.494 166.091 136.494C165.528 136.494 135.296 148.486 132.734 149.724C132.087 150.034 131.467 150.287 131.355 150.287C131.214 150.287 131.89 149.19 132.847 147.81C138.139 140.323 148.835 123.686 156.098 111.695C162.178 101.674 170.004 86.9235 173.607 78.7039C177.914 68.9642 179.49 61.4765 179.18 52.4688C178.758 39.492 173.466 26.8248 164.346 16.8037C160.94 13.0598 153.902 7.71144 149.398 5.4595C144.444 2.95421 137.716 0.87117 132.537 0.251892C129.272 -0.142212 121.08 -0.0577545 118.153 0.392624ZM130.989 4.19278C141.742 5.4032 151.172 9.82265 158.913 17.2541C164.036 22.152 167.104 26.2618 170.088 32.2576C174.113 40.2238 176.168 50.6109 175.352 58.7179C174.958 62.7714 173.916 67.5286 172.622 71.2162C169.187 81.1247 161.024 96.9727 150.187 114.819C141.967 128.387 126.851 151.132 126.063 151.132C125.838 151.132 121.897 145.981 118.434 141.139C113.621 134.468 106.077 122.983 106.077 122.363C106.077 122.166 106.724 121.097 107.512 120.027C110.187 116.396 114.043 110.484 114.916 108.627C115.704 106.966 115.788 106.544 115.788 103.982C115.788 101.533 115.704 100.97 115.028 99.5625C114.015 97.3669 112.27 95.5653 110.13 94.5238C108.554 93.7356 108.132 93.6511 106.443 93.7637C103.853 93.9045 103.149 94.4393 97.8008 100.041C93.5503 104.517 93.4096 104.658 93.0155 104.038C90.8761 100.52 83.0788 85.1219 80.6298 79.5202C78.8001 75.2978 76.717 68.8798 75.9289 64.9952C75.3377 62.1803 75.2533 60.9698 75.2533 55.7059C75.2533 50.442 75.3377 49.2598 75.9007 46.5574C79.5038 29.5271 91.608 14.4391 106.921 7.82405C114.127 4.72763 123.276 3.3483 130.989 4.19278ZM105.063 131.793C102.164 135.425 95.9993 141.364 93.8318 142.603C91.8613 143.757 88.9901 144.855 88.7086 144.573C88.4553 144.292 91.4673 138.831 93.0718 136.72C94.7889 134.468 95.1267 134.073 99.9965 128.669L103.346 124.953L105.007 127.374L106.696 129.767L105.063 131.793ZM110.271 135.481C111.059 136.635 111.707 137.648 111.707 137.733C111.707 138.014 106.921 143.841 105.007 145.924C100.025 151.273 96.2245 153.637 91.4673 154.369C90.2005 154.566 86.9915 154.341 86.4567 154.003C86.2315 153.862 86.3159 153.018 86.7945 151.019C87.1886 149.499 87.5264 148.176 87.6108 148.12C87.6671 148.064 88.5397 147.895 89.5531 147.754C94.62 147.022 99.5461 143.56 105.626 136.41C107.146 134.608 108.498 133.201 108.61 133.257C108.723 133.313 109.455 134.327 110.271 135.481ZM166.204 145.84C168.315 154.594 171.439 167.571 171.58 168.19C171.693 168.641 171.524 168.838 170.904 169.091C166.654 170.724 163.726 171.878 155.479 175.143C136.309 182.772 131.946 184.404 131.158 184.207C130.764 184.095 126.372 182.237 121.418 180.069C116.464 177.874 109.004 174.608 104.81 172.807C92.3962 167.402 91.8895 167.177 91.6361 166.924C91.5235 166.811 91.805 164.644 92.3117 162.138L93.2125 157.606L94.3666 157.297C97.7164 156.396 101.798 153.891 105.317 150.597C107.062 148.936 111.735 143.56 113.255 141.42L113.846 140.632L115.647 143.138C119.617 148.655 124.993 155.58 125.387 155.748C125.64 155.833 126.006 155.917 126.26 155.917C126.654 155.917 138.448 151.245 156.605 143.869C161.109 142.04 164.796 140.576 164.852 140.604C164.909 140.632 165.528 142.997 166.204 145.84ZM174.057 142.378C176.534 143.138 182.755 144.967 187.85 146.487C192.973 148.007 197.337 149.33 197.59 149.471C197.815 149.584 199.11 152.005 200.433 154.848C201.784 157.691 206.429 167.599 210.792 176.889C215.155 186.178 219.659 195.72 220.813 198.113C221.967 200.478 222.896 202.476 222.896 202.504C222.896 202.561 224.67 206.22 226.837 210.696C229.005 215.143 230.75 218.831 230.693 218.859C230.637 218.915 229.849 218.775 228.92 218.521C221.995 216.72 218.73 215.875 212.199 214.158C198.35 210.499 192.945 209.063 188.554 207.881L184.191 206.67L183.6 204.165C183.262 202.786 182.08 197.86 180.982 193.215C179.856 188.57 177.125 176.973 174.874 167.458C172.622 157.944 170.285 148.148 169.694 145.727C168.399 140.66 168.399 140.576 169.075 140.857C169.328 140.942 171.58 141.646 174.057 142.378ZM88.1456 157.803C89.0183 157.888 89.7501 158.057 89.7501 158.197C89.7501 158.704 82.9099 191.751 80.4327 203.264L79.2223 208.81L77.2519 209.401C76.1541 209.739 72.2695 210.949 68.6382 212.103C55.774 216.213 49.0182 218.352 44.4298 219.816C41.8683 220.604 38.2652 221.758 36.4073 222.35C28.5818 224.883 27.2869 225.193 28.047 224.264C28.3848 223.841 32.6072 216.551 43.698 197.184C48.2018 189.302 52.3398 182.349 52.9028 181.702C54.3384 180.098 56.2807 179 61.3757 176.917C66.2455 174.918 70.1301 173.032 72.5228 171.484C76.9141 168.697 81.5869 163.771 83.8107 159.577C84.9648 157.409 85.0774 157.297 85.7811 157.466C86.1752 157.55 87.2449 157.719 88.1456 157.803ZM94.8452 172.216C96.9282 173.117 103.684 176.072 109.877 178.803C116.07 181.505 122.797 184.461 124.796 185.333C137.351 190.879 146.443 194.735 164.543 202.167C172.171 205.291 178.42 207.937 178.42 208.022C178.42 208.19 173.494 210.386 168.709 212.357C167.33 212.92 160.236 215.932 152.945 219.028L139.715 224.686L137.745 224.236C136.675 224.01 133.888 223.278 131.552 222.631C129.244 221.984 123.023 220.267 117.759 218.803C112.495 217.339 105.654 215.425 102.558 214.552C86.4285 210.076 82.5721 208.922 82.6284 208.613C82.6847 208.444 83.0225 206.811 83.4166 204.981C83.8107 203.152 84.7114 198.986 85.387 195.749C86.0626 192.483 87.5264 185.587 88.6242 180.379C89.6938 175.171 90.5946 170.836 90.5946 170.752C90.5946 170.386 91.045 170.555 94.8452 172.216ZM172.622 172.722C172.678 173.004 174.367 180.013 176.309 188.289C178.28 196.565 179.997 203.658 180.137 204.024C180.278 204.39 180.363 204.728 180.334 204.756C180.25 204.841 168.512 200.14 161.39 197.184C159.223 196.283 154.859 194.482 151.679 193.159C148.498 191.836 143.656 189.809 140.897 188.655L135.887 186.516L141.742 184.207C144.951 182.941 150.947 180.604 155.056 179C159.166 177.423 164.599 175.312 167.132 174.327C169.694 173.314 171.833 172.441 171.918 172.385C172.171 172.103 172.481 172.244 172.622 172.722Z" fill="#252525"/>
<path d="M122.544 29.5269C116.548 30.2025 111.425 32.7077 106.977 37.1835C98.673 45.4594 96.5336 57.9013 101.544 68.5136C105.26 76.3672 113.789 82.363 122.515 83.2638C127.498 83.7705 131.72 83.0105 136.365 80.7585C144.078 77.0147 149.454 70.1463 151.171 61.8985C152.213 56.888 151.565 50.8359 149.426 45.8253C146.78 39.548 140.672 33.6085 134.423 31.2158C130.651 29.7521 126.259 29.1328 122.544 29.5269ZM127.92 33.4959C136.9 34.7345 144.838 41.8844 147.23 50.8922C148.328 55.0583 147.934 60.7726 146.245 64.9949C144.247 69.9492 139.771 74.7346 134.873 77.2117C129.271 80.0266 122.037 80.1111 116.154 77.4369C103.543 71.7226 98.87 56.4939 106.048 44.4741C108.779 39.8858 113.648 35.9168 118.462 34.3404C121.755 33.2707 124.542 33.0174 127.92 33.4959Z" fill="#252525"/>
<path d="M33.1986 3.60146C32.8608 3.93925 32.6074 4.55853 32.6074 4.98077C32.6074 5.54376 34.972 9.54095 40.4329 18.2954C50.4822 34.3405 50.2007 33.9464 50.8763 34.2842C51.7208 34.7627 52.1993 34.6501 53.1564 33.8338C53.832 33.2708 54.029 32.933 53.9164 32.37C53.832 31.807 43.7264 15.4804 36.9424 4.89632C35.9572 3.37626 35.732 3.20737 34.8031 3.12292C34.043 3.06662 33.5926 3.20737 33.1986 3.60146Z" fill="#252525"/>
<path d="M3.21923 24.2068C2.4592 24.826 2.26215 25.7831 2.76884 26.712C2.93774 27.0217 6.20305 29.1047 10.0313 31.3848C13.8596 33.6649 20.9814 37.8873 25.8512 40.7867C30.7211 43.686 36.3509 47.0077 38.3495 48.2181C40.3481 49.4003 42.2622 50.3574 42.6 50.3574C43.3882 50.3574 44.4016 49.5974 44.7394 48.7529C45.1335 47.6832 44.5142 46.9232 42.1215 45.5439C40.1792 44.4179 34.5775 41.1245 15.2953 29.6396C4.03556 22.9682 4.5141 23.1934 3.21923 24.2068Z" fill="#252525"/>
<path d="M4.42993 61.1668C3.16321 61.7861 2.99432 64.0943 4.14844 64.6855C4.42993 64.8544 8.37082 65.164 12.931 65.4174C17.4912 65.6425 23.4307 65.9522 26.133 66.1211C37.9275 66.7967 40.1513 66.8248 40.7706 66.2618C41.8966 65.2485 41.1366 62.7713 39.7291 62.7432C39.4476 62.715 36.886 62.6024 34.0148 62.4617C11.4672 61.3357 5.94999 61.0542 5.52775 60.9416C5.27441 60.8853 4.76772 60.9979 4.42993 61.1668Z" fill="#252525"/>
<path d="M126.105 151.035C126.899 151.035 142.106 128.306 150.375 114.748C161.278 96.9145 169.489 81.0774 172.944 71.176C174.247 67.4911 175.295 62.7373 175.691 58.6868C176.513 50.5856 174.445 40.2059 170.396 32.2454C167.394 26.2539 164.307 22.1466 159.153 17.2522C151.366 9.82623 141.879 5.41003 131.062 4.20044C123.302 3.35657 114.098 4.73512 106.849 7.82935C91.4433 14.4398 79.2664 29.5172 75.6416 46.5354C75.0753 49.2356 74.9902 50.4171 74.9902 55.677C74.9902 60.9372 75.0752 62.1473 75.6699 64.9602C76.4629 68.8421 78.5588 75.2556 80.3994 79.4749C82.8633 85.0728 90.7071 100.458 92.8594 103.975C93.2558 104.594 93.3977 104.453 97.6738 99.9807C103.054 94.3833 103.762 93.8489 106.367 93.7083C108.066 93.5957 108.491 93.6795 110.077 94.467C112.229 95.5078 113.985 97.3082 115.005 99.5022C115.685 100.909 115.77 101.472 115.77 103.919C115.77 106.478 115.684 106.901 114.892 108.56C114.014 110.416 110.134 116.324 107.443 119.952C106.65 121.021 105.999 122.09 105.999 122.287C106 122.907 113.588 134.383 118.431 141.049C121.914 145.887 125.879 151.035 126.105 151.035ZM136.47 80.7122C131.797 82.9624 127.549 83.7214 122.537 83.2151C113.758 82.3149 105.178 76.3239 101.439 68.4758C96.3988 57.8712 98.5515 45.4382 106.905 37.1682C111.38 32.6957 116.534 30.192 122.565 29.5168C126.303 29.123 130.721 29.7417 134.516 31.2043C140.802 33.5953 146.947 39.5303 149.609 45.803C151.762 50.81 152.413 56.8585 151.365 61.8655C149.638 70.1072 144.229 76.971 136.47 80.7122Z" fill="#A2D5FF"/>
</svg>
