<svg width="281" height="250" viewBox="0 0 281 250" fill="none" xmlns="http://www.w3.org/2000/svg">
<path d="M149.483 0.347641C148.526 1.06084 148.56 2.23763 149.586 5.41138C151.125 10.0829 151.638 13.5062 151.604 18.8553C151.604 23.2771 151.501 24.1686 150.646 26.8788C150.133 28.5548 148.799 31.7643 147.636 34.0108C141.857 45.4221 141.036 48.6672 141.959 56.5124C142.37 60.1141 142.472 60.5064 143.225 60.863C143.84 61.1839 144.251 61.1482 144.935 60.756C146.097 60.0428 146.439 58.545 146.029 55.9419C145.071 49.7726 146.132 45.0655 150.304 37.2916C152.424 33.3333 153.621 30.4092 154.682 26.7005C155.263 24.6679 155.4 23.2058 155.4 18.8553C155.434 13.007 154.989 10.0829 153.177 4.16328C152.322 1.41745 151.98 0.775562 151.193 0.347641C150.338 -0.11594 150.133 -0.11594 149.483 0.347641Z" fill="#DADADA"/>
<path d="M107.434 6.18093C107.023 7.30585 106.948 7.13008 109.864 11.911C110.762 13.3171 111.996 15.7076 112.594 17.2192C113.828 20.1721 115.211 25.867 115.211 27.9762C115.211 28.6793 115.398 29.4527 115.66 29.6988C116.37 30.3667 117.753 30.1909 118.613 29.3824C119.324 28.7145 119.361 28.3629 119.174 26.2888C118.912 23.1953 118.389 20.84 117.454 18.1332C116.52 15.4967 112.07 6.67309 111.21 5.79424C110.837 5.40755 110.089 5.16148 109.192 5.16148C107.995 5.16148 107.771 5.30209 107.434 6.18093Z" fill="#DADADA"/>
<path d="M192.952 59.0515C188.717 59.8557 185.65 60.9888 183.278 62.6337C177.911 66.3255 173.019 72.7222 170.281 79.594C168.748 83.432 168.785 84.6017 170.464 85.1135C171.669 85.479 173.238 83.9438 174.041 81.641C175.83 76.5602 178.678 72.1008 182.365 68.7014C186.089 65.1923 190.396 63.3282 195.799 62.853C197.843 62.7068 198.318 62.524 199.194 61.5736C200.326 60.3309 200.362 60.1481 199.705 59.2708C199.012 58.3205 197.113 58.2474 192.952 59.0515Z" fill="#DADADA"/>
<path d="M115.236 66.1335C112.6 67.8806 111.602 71.8028 112.671 76.4025L113.134 78.3636L106.507 94.7654C102.837 103.786 97.3863 117.336 94.3579 124.895C91.3295 132.454 88.693 138.943 88.5148 139.336C88.3367 139.728 85.8427 145.896 82.9568 153.063C75.368 171.961 72.0545 180.162 70.1306 184.797C68.4917 188.648 68.3848 189.076 68.3848 192.107C68.3848 194.888 68.4917 195.53 69.3111 196.956L70.2375 198.596L67.7435 200.7C62.9693 204.765 59.5489 208.936 57.5181 213.144C56.5205 215.176 56.1286 218.136 56.093 223.662C56.0217 228.904 55.4517 231.222 53.6703 233.29C52.1382 235.108 48.041 237.141 45.4045 237.426C44.3356 237.568 43.0886 237.889 42.6611 238.139C41.8416 238.638 41.5922 239.85 42.1266 240.67C42.5186 241.312 44.2644 241.883 45.2619 241.705C49.6442 240.884 54.3828 238.567 56.5918 236.107C59.5489 232.826 60.3684 229.831 60.3684 222.201C60.3684 219.277 60.5465 217.102 60.9028 215.961C61.9717 212.359 65.4633 208.009 70.8075 203.624L73.2659 201.627L74.8335 202.304C77.3988 203.445 79.5365 203.552 82.3155 202.625C87.5529 200.914 103.265 193.319 129.488 179.948C138.216 175.491 147.515 170.784 150.152 169.501C152.788 168.217 162.016 163.653 170.603 159.374L186.279 151.566L188.417 152.208C193.441 153.634 196.683 152.742 198.357 149.498C199.569 147.109 199.569 145.504 198.428 141.439C197.324 137.731 195.934 135.093 191.944 129.352C184.248 118.192 175.983 108.386 165.116 97.4396C155.354 87.5985 148.656 81.7865 139.677 75.3684C130.236 68.6294 124.143 65.6343 119.333 65.4204C116.804 65.3134 116.341 65.3847 115.236 66.1335ZM122.255 70.1983C126.067 71.4819 136.756 78.0426 143.026 82.9275C152.147 90.0588 164.653 102.182 173.453 112.415C177.942 117.657 186.03 127.997 189.058 132.383C192.906 137.981 195.044 142.794 195.044 145.932C195.044 148 194.616 148.428 192.585 148.428C186.422 148.357 170.567 137.446 151.933 120.367C141.067 110.418 130.2 98.0458 123.644 88.169C118.3 80.1107 116.661 76.4738 116.661 72.4803C116.661 70.5192 116.804 69.9487 117.303 69.6278C118.015 69.1999 119.903 69.4138 122.255 70.1983ZM118.229 87.4915C123.609 96.156 131.376 105.712 140.604 115.089C144.06 118.619 146.874 121.543 146.839 121.579C146.732 121.65 131.376 118.405 121.293 116.159C121.008 116.088 117.231 115.303 112.92 114.376C108.645 113.449 104.833 112.593 104.512 112.451C103.978 112.273 104.69 110.276 109.642 97.8675C112.813 89.9875 115.486 83.5337 115.592 83.5337C115.699 83.5694 116.875 85.3522 118.229 87.4915ZM101.662 129.53C106.044 130.529 117.303 132.918 124.143 134.344C127.385 134.986 132.338 136.055 135.188 136.661C138.038 137.268 140.746 137.874 141.209 137.945C142.278 138.159 156.173 141.083 161.553 142.259C163.798 142.723 165.971 143.186 166.363 143.293C166.755 143.365 168.999 143.793 171.351 144.256C175.234 145.005 175.947 145.29 178.94 147.109L182.289 149.105L169.676 155.31L157.1 161.514L141.601 158.376C133.086 156.629 123.716 154.739 120.759 154.169C117.837 153.562 110.996 152.208 105.616 151.102C100.237 150.032 95.3555 149.034 94.7498 148.927C94.1798 148.82 93.5384 148.678 93.3247 148.642C93.1465 148.571 92.1846 148.428 91.2582 148.25C90.225 148.107 89.6193 147.822 89.6906 147.572C89.7975 147.358 91.5076 143.044 93.5028 137.981C96.5669 130.279 97.2794 128.817 97.8851 128.817C98.277 128.817 99.9516 129.138 101.662 129.53ZM87.3747 163.76C93.7166 165.079 104.12 167.326 107.398 168.039C109.251 168.467 111.103 168.859 111.495 168.966C117.481 170.107 132.302 173.566 132.088 173.779C131.91 173.922 125.39 177.309 117.516 181.303L103.229 188.577L97.2082 187.222C93.8947 186.473 87.731 185.118 83.5269 184.191C79.3227 183.264 75.7955 182.48 75.7242 182.408C75.6174 182.337 80.9972 168.538 82.8499 164.188C83.2418 163.332 83.6694 162.762 83.8831 162.869C84.0969 163.011 85.6646 163.404 87.3747 163.76Z" fill="#252525"/>
<path d="M249.737 69.0274C244 69.633 235.947 73.8011 231.564 78.5035C230.851 79.2516 229.64 80.7478 228.856 81.8165C226.896 84.4527 222.976 88.1932 220.268 89.9388C218.059 91.3638 213.676 93.0381 211.253 93.43C210.576 93.5012 208.367 93.715 206.336 93.8219C203.271 94 202.487 94.1781 201.739 94.8193C200.492 95.8881 200.848 97.2774 202.559 97.8474C203.877 98.2749 208.759 98.0611 211.645 97.4555C213.854 96.9924 218.7 95.425 220.019 94.7481C224.081 92.6463 228.713 88.5495 232.847 83.384C236.767 78.5035 241.648 75.1904 247.35 73.623C248.775 73.2311 250.592 72.9105 251.412 72.9105C253.835 72.9105 258.182 73.8723 260.498 74.9054C262.244 75.6892 262.779 75.796 263.492 75.4754C264.525 74.9767 265.024 73.4805 264.347 72.6967C263.313 71.4499 258.539 69.5618 255.296 69.1699C254.334 69.0274 253.265 68.8849 252.98 68.8493C252.695 68.7781 251.234 68.8493 249.737 69.0274Z" fill="#DADADA"/>
<path d="M80.2334 78.9537C78.8109 80.6018 79.9212 82.3964 82.662 82.9824C83.7723 83.2387 84.1192 83.5683 84.9172 85.0699C86.4785 88.0731 86.0968 91.1129 83.9458 92.9074C82.662 93.9695 80.6498 93.8963 78.3946 92.6877C76.8334 91.8453 76.417 91.7721 75.6884 92.1383C74.4741 92.7243 74.1619 94.2259 75.0292 95.4345C75.8966 96.6797 78.9844 98.0348 80.9273 98.0714C84.0498 98.0714 87.7969 95.7641 89.2193 92.9074C90.0173 91.296 90.2949 86.2419 89.7051 84.3374C88.4561 80.3454 82.1069 76.7563 80.2334 78.9537Z" fill="#A2D5FF"/>
<path d="M210.156 118.874C207.881 119.197 204.113 120.56 203.331 121.349C202.727 121.995 202.585 122.354 202.833 122.964C203.367 124.471 204.006 124.579 207.419 123.718C209.801 123.108 211.614 122.928 214.813 122.928C225.939 122.964 235.004 127.378 241.296 135.917C243.571 139.003 246.521 141.946 247.339 141.946C247.694 141.946 248.263 141.551 248.583 141.049C249.685 139.362 249.365 138.501 246.557 135.523C245.099 134.016 243.144 131.791 242.184 130.679C237.35 124.938 229.245 120.488 221.105 119.197C218.332 118.766 212.182 118.551 210.156 118.874Z" fill="#DADADA"/>
<path d="M25.9528 154.122C22.2782 155.122 18.7095 156.011 18.0382 156.159C16.3423 156.455 15.1763 157.344 15.1763 158.307C15.1763 159.344 15.8123 160.011 16.8369 160.011C18.3209 160.011 33.726 155.826 34.362 155.27C34.68 154.974 34.9626 154.418 34.9626 154.085C34.9626 153.307 33.8673 152.233 33.1607 152.27C32.878 152.307 29.6627 153.122 25.9528 154.122Z" fill="#DADADA"/>
<path d="M39.3175 185.424C30.4789 190.97 29.8018 191.458 29.8018 192.434C29.8018 193.411 30.7997 194.422 31.7619 194.422C32.1183 194.422 35.8248 192.26 39.9946 189.644C46.1959 185.703 47.6571 184.657 47.7997 183.89C48.0848 182.634 47.4433 181.518 46.4097 181.518C45.9464 181.518 42.7389 183.297 39.3175 185.424Z" fill="#DADADA"/>
<path d="M182.254 210.923C180.768 211.47 180.874 212.856 182.536 215.773C183.385 217.231 185.614 221.096 187.453 224.341C190.99 230.539 191.521 231.086 193.325 230.247C194.775 229.591 194.386 228.278 190.814 221.825C185.083 211.507 184.093 210.231 182.254 210.923Z" fill="#DADADA"/>
<path d="M108.47 220.92C107.919 221.511 105.9 228.085 103.11 238.589C102.707 240.155 102.927 240.885 104.101 241.581C104.505 241.824 104.946 241.789 105.606 241.441C106.744 240.885 107.111 239.876 109.864 229.337C111.443 223.215 111.736 221.789 111.406 221.059C110.892 220.015 109.424 219.946 108.47 220.92Z" fill="#DADADA"/>
<path d="M148.428 230.514C147.763 231.162 147.578 231.667 147.689 232.423C147.763 232.964 148.207 236.747 148.65 240.818C149.315 247.231 149.5 248.276 150.165 248.816C151.902 250.293 154.008 249.141 153.638 246.979C153.232 244.745 152.715 240.458 152.308 235.774C151.939 231.667 151.828 231.198 150.978 230.442C149.795 229.433 149.537 229.433 148.428 230.514Z" fill="#DADADA"/>
<path d="M249.601 164.313L258.756 182.252L278.646 185.415L264.414 199.665L267.552 219.56L249.601 210.428L231.65 219.56L234.788 199.665L220.556 185.415L240.446 182.252L249.601 164.313Z" fill="#7ADC79"/>
<path d="M25.4993 69.6824L32.978 84.3369L49.2263 86.921L37.6 98.5622L40.1634 114.814L25.4993 107.354L10.8352 114.814L13.3985 98.5622L1.77231 86.921L18.0206 84.3369L25.4993 69.6824Z" fill="#7ADC79"/>
<rect x="68.5142" y="38.7124" width="16.3453" height="16.3453" rx="2" fill="#A2D5FF"/>
<rect x="143.357" y="204.746" width="12.0439" height="12.0439" rx="2" fill="#A2D5FF"/>
<ellipse cx="53.0284" cy="135.063" rx="5.16166" ry="5.16166" fill="#CDE9FF"/>
<ellipse cx="180.35" cy="186.68" rx="5.16166" ry="5.16166" fill="#CDE9FF"/>
<ellipse cx="182.931" cy="30.1097" rx="5.16166" ry="5.16166" fill="#CDE9FF"/>
<circle cx="224.224" cy="43.4439" r="8.17263" fill="#CDE9FF"/>
</svg>
